<svg width="31" height="10" viewBox="0 0 31 10" fill="none" xmlns="http://www.w3.org/2000/svg">
    <path fill-rule="evenodd" clip-rule="evenodd" d="M4.441 7.004c0-.354.004-1.3-.005-1.416.008-1.408-1.078-2.4-1.763-2.323-.475.039-.873.221-1.086.746-.198.489-.021 1.14.637 1.292.703.164 1.114.3 1.412.493.364.235.661.685.67 1.208" fill="#2D398F"/>
    <path fill-rule="evenodd" clip-rule="evenodd" d="M4.147 7.004c.002-.453-.266-.854-.617-1.07-.312-.19-.73-.315-1.404-.477-.208-.05-.426-.162-.494-.304-.178.17-.21.551-.18.774.037.258.357.683.838.7.294.01.666-.06.844-.096.307-.063.794.119.871.473M4.69 1.072c-.817 0-1.521.507-1.519 1.385.003.738.632 1.133.857 1.415.34.426.524.93.543 1.7.015.613.014 1.218.017 1.433h.18a52.997 52.997 0 0 1-.002-1.452c.012-.77.203-1.255.543-1.68.226-.283.856-.678.857-1.416.003-.878-.701-1.385-1.517-1.385" fill="#2D398F"/>
    <path fill-rule="evenodd" clip-rule="evenodd" d="M4.897 7.004c0-.354-.005-1.3.005-1.416-.008-1.408 1.076-2.4 1.763-2.323.474.039.871.221 1.086.746.197.489.02 1.14-.638 1.292-.704.164-1.114.3-1.412.493-.364.235-.64.685-.65 1.208" fill="#2D398F"/>
    <path fill-rule="evenodd" clip-rule="evenodd" d="M5.19 7.004c-.002-.453.266-.854.616-1.07.313-.19.731-.315 1.405-.477.209-.05.427-.162.493-.304.18.17.212.551.18.774-.037.258-.356.683-.836.7-.294.01-.667-.06-.845-.096-.306-.063-.794.119-.872.473M5.442 8.468l-.104-.718.252-.036c.061-.008.136.002.166.039.033.037.043.069.05.118.009.062-.01.133-.083.168v.002c.082 0 .131.056.146.15.002.02.008.067.002.107-.017.095-.077.125-.178.139l-.25.031zm.162-.128c.03-.004.06-.006.084-.02.037-.022.033-.07.028-.106-.012-.077-.034-.107-.122-.095l-.055.008.035.217.03-.004zm-.052-.332c.033-.005.078-.009.097-.039.01-.02.023-.035.014-.08-.01-.052-.028-.085-.1-.072l-.065.01.026.184.028-.003zM6.534 8.036l.005.042c.02.131-.005.24-.161.27-.231.041-.275-.094-.316-.283l-.022-.103c-.031-.18-.045-.318.18-.36.127-.022.21.025.246.144.005.018.012.036.015.054l-.139.027c-.016-.045-.037-.125-.099-.118-.111.012-.075.143-.063.198l.041.196c.013.06.038.155.134.137.079-.015.044-.13.037-.178M6.756 8.254l-.048-.743.186-.054.389.647-.146.041-.092-.164-.163.046.021.186-.147.041zm.113-.348.117-.032-.156-.3.039.332zM2.172 7.692c.058-.175.11-.304.332-.247.118.031.192.08.188.21 0 .03-.01.059-.017.087l-.138-.036c.018-.071.03-.128-.064-.156-.109-.028-.135.096-.15.15l-.056.195c-.018.058-.04.153.056.178.079.02.127-.053.155-.16l-.096-.024.033-.112.227.068-.108.376-.104-.027.023-.08H2.45a.149.149 0 0 1-.158.063c-.227-.057-.203-.197-.149-.384M3.017 8.01l-.069.305-.154-.031.164-.714.263.056c.153.031.2.095.178.228-.013.076-.053.158-.15.152v-.002c.081.027.088.067.074.134-.006.029-.049.203-.02.231l.002.022-.16-.04c-.006-.048.016-.135.025-.183.01-.042.024-.102-.022-.125-.036-.018-.05-.017-.09-.026l-.041-.008zm.026-.111.103.026c.063.009.098-.022.11-.094.012-.065-.003-.091-.06-.104l-.11-.021-.043.193zM4.003 7.73l.153.016-.066.502c-.032.159-.097.228-.283.207-.188-.023-.233-.104-.222-.264l.066-.502.153.017-.065.49c-.007.053-.02.132.08.142.089.006.11-.05.12-.119M4.323 8.482l.046-.717.292.012c.138.006.175.112.17.214-.004.062-.024.13-.081.168a.268.268 0 0 1-.163.037l-.095-.005-.02.3-.149-.01zm.173-.4.077.003c.063.002.105-.021.11-.108.004-.084-.03-.098-.111-.101l-.062-.002-.014.207zM24.94 1.765l-1.162 1.988c-.438-.336-.974-.583-1.657-.583-1.617 0-2.273 1.136-2.273 1.936 0 .595.412 1.471 1.85 1.471.604 0 1.463-.396 1.71-.576l-1.149 2.306c-.548.103-.728.167-1.191.18-2.575.073-3.616-1.418-3.615-2.942.002-2.014 1.902-4.463 5.05-4.463.194 0 .43.063.631.132l.204-.246M29.734 1.03l.329 7.225h-2.449l-.001-1.239h-1.67l-.55 1.24H22.74l2.776-5.16-.626-.004 1.189-2.061h3.656zm-2.137 2.21-.944 2.102h.972l-.028-2.101z" fill="#2D398F"/>
    <path fill-rule="evenodd" clip-rule="evenodd" d="M15.908 1.03c1.212.007 1.897.627 1.897 1.523 0 .827-.722 1.558-1.516 1.936.817.283.888.978.888 1.47 0 1.187-1.264 2.296-2.907 2.296h-3.583l1.397-5.087-.574-.003 1.174-2.135s2.238-.006 3.224 0zm-1.19 2.93c.25 0 .694-.06.804-.518.122-.497-.294-.51-.493-.51l-.713-.003-.248 1.03h.65zm-1.007 1.276-.328 1.188h.839c.33 0 .78-.155.89-.541.108-.388-.206-.647-.535-.647h-.866zM4.722 9.143c-1.24 0-2.516-.288-3.789-.858l-.031-.014-.015-.03a8.063 8.063 0 0 1-.874-3.597c0-1.215.29-2.406.862-3.541l.016-.03.031-.015A9.175 9.175 0 0 1 4.69.265c1.231 0 2.547.297 3.803.86l.032.013.015.03c.583 1.159.89 2.402.89 3.599 0 1.191-.295 2.383-.878 3.54l-.016.03-.032.014a9.347 9.347 0 0 1-3.782.792M1.05 8.129c1.237.549 2.47.826 3.67.826a9.14 9.14 0 0 0 3.666-.76c.56-1.121.844-2.275.844-3.429 0-1.158-.296-2.362-.857-3.486C7.155.74 5.882.453 4.69.453c-1.28 0-2.508.256-3.65.76a7.636 7.636 0 0 0-.827 3.43c0 1.178.29 2.384.838 3.486z" fill="#2D398F"/>
</svg>
